<svg xmlns="http://www.w3.org/2000/svg" version="1.1" xmlns:xlink="http://www.w3.org/1999/xlink" xmlns:svgjs="http://svgjs.com/svgjs" width="1440" height="560" preserveAspectRatio="none" viewBox="0 0 1440 560">
    <g mask="url(&quot;#SvgjsMask1020&quot;)" fill="none">
        <path d="M636.97 288.29 a146.51 146.51 0 1 0 293.02 0 a146.51 146.51 0 1 0 -293.02 0z" fill="rgba(255, 255, 255, 0.4)" class="triangle-float3"></path>
        <path d="M671.6362205196 358.93794471854454L723.8711355867324 264.7036634448908 556.4022561426857 233.4684314810191z" fill="rgba(255, 255, 255, 0.4)" class="triangle-float3"></path>
        <path d="M869.1480379333192 480.6165473691913L803.7294018704548 543.7905898782888 866.9034443795522 609.2092259411531 932.3220804424166 546.0351834320558z" fill="rgba(255, 255, 255, 0.4)" class="triangle-float1"></path>
        <path d="M795.3309900851149 305.17603450388634L679.5644159677784 267.5611944077571 641.9495758716491 383.3277685250937 757.7161499889856 420.9426086212229z" fill="rgba(255, 255, 255, 0.4)" class="triangle-float2"></path>
        <path d="M676.09 209.43 a186.15 186.15 0 1 0 372.3 0 a186.15 186.15 0 1 0 -372.3 0z" fill="rgba(255, 255, 255, 0.4)" class="triangle-float2"></path>
        <path d="M171.65,481.841C213.798,480.168,256.859,468.114,278.693,432.024C301.211,394.804,295.89,348.695,275.427,310.307C253.499,269.171,218.253,230.117,171.65,231.218C126.24,232.291,98.976,275.816,76.035,315.02C52.752,354.808,25.88,401.152,48.804,441.148C71.795,481.26,125.452,483.675,171.65,481.841" fill="rgba(255, 255, 255, 0.4)" class="triangle-float3"></path>
        <path d="M1026.551,478.21C1060.95,478.702,1092.336,459.812,1110.115,430.359C1128.542,399.833,1135.046,360.586,1115.591,330.705C1097.355,302.696,1059.951,300.811,1026.551,302.012C995.871,303.115,964.332,310.769,947.947,336.731C930.538,364.316,931.181,399.514,947.023,428.028C963.339,457.396,992.958,477.73,1026.551,478.21" fill="rgba(255, 255, 255, 0.4)" class="triangle-float2"></path>
        <path d="M197.546,168.691C224.374,169.337,249.992,155.537,263.186,132.169C276.178,109.159,271.887,81.821,259.885,58.28C246.41,31.85,227.185,4.712,197.546,3.422C166.314,2.063,138.578,24.233,125.042,52.412C113.026,77.427,122.475,105.588,137.158,129.136C150.804,151.021,171.762,168.071,197.546,168.691" fill="rgba(255, 255, 255, 0.4)" class="triangle-float1"></path>
        <path d="M215.19,618.752C271.393,619.379,332.685,611.593,362.706,564.076C394.324,514.032,382.806,450.472,354.282,398.603C324.509,344.462,276.951,294.042,215.19,295.825C155.4,297.551,117.581,353.52,89.343,406.25C63.127,455.203,44.966,513.068,73.262,560.849C101.167,607.969,160.43,618.142,215.19,618.752" fill="rgba(255, 255, 255, 0.4)" class="triangle-float2"></path>
        <path d="M140.96 542.54 a97.19 97.19 0 1 0 194.38 0 a97.19 97.19 0 1 0 -194.38 0z" fill="rgba(255, 255, 255, 0.4)" class="triangle-float3"></path>
        <path d="M778.6889788228139 301.5691632003161L761.6317458215709 162.6491485355128 639.7689641580106 318.62639620155903z" fill="rgba(255, 255, 255, 0.4)" class="triangle-float2"></path>
    </g>
    <defs>
        <mask id="SvgjsMask1020">
            <rect width="1440" height="560" fill="#ffffff"></rect>
        </mask>
        <style>
            @keyframes float1 {
                0%{transform: translate(0, 0)}
                50%{transform: translate(-20px, 0)}
                100%{transform: translate(0, 0)}
            }

            .triangle-float1 {
                animation: float1 5s infinite ease-in-out;
            }

            @keyframes float2 {
                0%{transform: translate(0, 0)}
                50%{transform: translate(-30px, -30px)}
                75%{transform: translate(-20px, -40px)}
                100%{transform: translate(0, 0)}
            }

            .triangle-float2 {
                animation: float2 10s infinite ease-in-out;
            }

            @keyframes float3 {
                0%{transform: translate(0, 0)}
                50%{transform: translate(0, -20px)}
                75%{transform: translate(-20px, -10px)}
                100%{transform: translate(0, 0)}
            }

            .triangle-float3 {
                animation: float3 10s infinite ease-in-out;
            }
        </style>
    </defs>
</svg>